<svg width="100" height="100" viewBox="0 0 100 100" fill="none" xmlns="http://www.w3.org/2000/svg">
<path d="M77.6754 78.1551H4.03867C3.27838 78.155 2.54926 77.8529 2.01165 77.3153C1.47405 76.7777 1.17198 76.0486 1.17188 75.2883V23.9723C1.17198 23.212 1.47405 22.4829 2.01165 21.9452C2.54926 21.4076 3.27838 21.1056 4.03867 21.1055H77.6758C78.4361 21.1056 79.1652 21.4076 79.7028 21.9452C80.2404 22.4829 80.5425 23.212 80.5426 23.9723V75.2883C80.5425 76.0486 80.2404 76.7778 79.7027 77.3154C79.165 77.8531 78.4358 78.1551 77.6754 78.1551Z" fill="#4671C6"/>
<path d="M1.53906 22.5711L7.18984 45.1398C7.36447 45.8374 7.7672 46.4565 8.33403 46.8989C8.90087 47.3414 9.59931 47.5817 10.3184 47.5816H71.3965C72.1155 47.5816 72.8139 47.3413 73.3808 46.8989C73.9476 46.4565 74.3503 45.8373 74.525 45.1398L80.1758 22.5711C79.9271 22.1266 79.5644 21.7565 79.125 21.4989C78.6856 21.2412 78.1855 21.1054 77.6762 21.1055H4.03906C3.52969 21.1055 3.02954 21.2413 2.59011 21.4989C2.15069 21.7565 1.78788 22.1266 1.53906 22.5711Z" fill="#A4C9FF"/>
<path d="M24.4512 21.1059L26.0922 12.3707C26.1231 12.2065 26.2104 12.0583 26.339 11.9516C26.4676 11.8449 26.6294 11.7864 26.7965 11.7863H54.9168C55.2613 11.7863 55.5574 12.032 55.6211 12.3707L57.2617 21.1059H61.6367L59.8469 11.5766C59.6303 10.4272 59.0193 9.38954 58.1191 8.64276C57.219 7.89597 56.0864 7.48695 54.9168 7.48633H26.7965C25.6268 7.48688 24.494 7.89591 23.5938 8.64278C22.6936 9.38965 22.0825 10.4275 21.866 11.577L20.0762 21.1059H24.4512Z" fill="#4671C6"/>
<path d="M77.6758 78.9363H4.03867C2.02734 78.9363 0.390625 77.3 0.390625 75.2883V23.9723C0.390625 21.9609 2.02695 20.3242 4.03867 20.3242H77.6758C79.6871 20.3242 81.3238 21.9605 81.3238 23.9723V75.2883C81.3234 77.3 79.6871 78.9363 77.6758 78.9363ZM4.03867 21.8867C3.48574 21.8873 2.95563 22.1073 2.56465 22.4982C2.17367 22.8892 1.95375 23.4193 1.95313 23.9723V75.2883C1.95375 75.8412 2.17367 76.3713 2.56465 76.7623C2.95563 77.1533 3.48574 77.3732 4.03867 77.3738H77.6758C78.2287 77.3732 78.7588 77.1533 79.1498 76.7623C79.5408 76.3713 79.7607 75.8412 79.7613 75.2883V23.9723C79.7607 23.4193 79.5408 22.8892 79.1498 22.4982C78.7588 22.1073 78.2287 21.8873 77.6758 21.8867H4.03867Z" fill="#3762CC"/>
<path d="M71.3961 48.3633H10.3183C9.42489 48.3642 8.55682 48.0661 7.85248 47.5164C7.14815 46.9667 6.6481 46.197 6.43202 45.3301L0.781237 22.7609C0.732749 22.5674 0.760142 22.3627 0.857799 22.1887C1.17516 21.6238 1.63701 21.1534 2.19602 20.8258C2.75503 20.4982 3.3911 20.3251 4.03905 20.3242H77.6762C78.324 20.3252 78.9599 20.4983 79.5188 20.8259C80.0777 21.1534 80.5395 21.6236 80.857 22.1883C80.9551 22.3621 80.9824 22.5672 80.934 22.7609L75.2828 45.3297C75.0667 46.1967 74.5665 46.9664 73.8621 47.5162C73.1578 48.066 72.2896 48.3642 71.3961 48.3633ZM2.37967 22.7113L7.94803 44.9504C8.07978 45.4792 8.38475 45.9486 8.81434 46.2839C9.24393 46.6192 9.7734 46.801 10.3183 46.8004H71.3961C71.941 46.801 72.4704 46.6191 72.9 46.2838C73.3296 45.9486 73.6346 45.4791 73.7664 44.9504L79.3351 22.7113C79.1407 22.4555 78.8897 22.2479 78.6019 22.1049C78.3141 21.9619 77.9972 21.8872 77.6758 21.8867H4.03905C3.71766 21.8873 3.40074 21.962 3.11293 22.105C2.82513 22.248 2.5742 22.4555 2.37967 22.7113Z" fill="#3762CC"/>
<path d="M61.6372 21.8871H57.2622C57.08 21.8871 56.9035 21.8235 56.7633 21.7071C56.623 21.5908 56.5279 21.4291 56.4943 21.25L54.8634 12.5676H26.8501L25.2193 21.25C25.1857 21.4291 25.0905 21.5908 24.9503 21.7071C24.81 21.8235 24.6335 21.8871 24.4513 21.8871H20.0763C19.9615 21.8871 19.8481 21.8618 19.7441 21.813C19.6402 21.7642 19.5483 21.6931 19.475 21.6048C19.4017 21.5164 19.3487 21.413 19.3199 21.3018C19.2911 21.1907 19.2872 21.0746 19.3083 20.9617L21.0986 11.4328C21.3487 10.1043 22.055 8.9048 23.0954 8.0416C24.1359 7.1784 25.4451 6.70567 26.797 6.70508H54.9173C56.2691 6.70582 57.5781 7.17856 58.6185 8.04166C59.6588 8.90476 60.3651 10.104 60.6154 11.4324L62.4052 20.9617C62.4262 21.0745 62.4221 21.1906 62.3932 21.3016C62.3643 21.4127 62.3113 21.5161 62.2381 21.6044C62.1648 21.6927 62.073 21.7638 61.9691 21.8126C61.8653 21.8615 61.752 21.8869 61.6372 21.8871ZM57.9103 20.3246H60.6958L59.0794 11.7211C58.8965 10.7508 58.3806 9.87486 57.6207 9.24442C56.8608 8.61398 55.9047 8.26862 54.9173 8.26797H26.797C25.8095 8.2684 24.8531 8.61372 24.0931 9.24427C23.3331 9.87482 22.8172 10.751 22.6345 11.7215L21.0181 20.325H23.8036L25.3247 12.227C25.3895 11.8837 25.5721 11.5739 25.841 11.351C26.1099 11.1281 26.4481 11.006 26.7974 11.0059H54.9177C55.2669 11.0061 55.605 11.1281 55.8738 11.351C56.1425 11.5738 56.3251 11.8835 56.39 12.2266L57.9103 20.3246Z" fill="#3762CC"/>
<path d="M44.0355 53.8449H37.6785C37.2033 53.8449 36.7475 53.6561 36.4115 53.3201C36.0755 52.9841 35.8867 52.5283 35.8867 52.0531V43.1121C35.8867 42.6369 36.0755 42.1811 36.4115 41.8451C36.7475 41.5091 37.2033 41.3203 37.6785 41.3203H44.0352C44.5104 41.3203 44.9661 41.5091 45.3021 41.8451C45.6382 42.1811 45.827 42.6369 45.827 43.1121V52.0531C45.827 52.5283 45.6382 52.984 45.3023 53.32C44.9663 53.656 44.5107 53.8448 44.0355 53.8449Z" fill="#E0EBFC"/>
<path d="M44.0348 54.6262H37.6781C36.996 54.6253 36.3421 54.354 35.8598 53.8716C35.3775 53.3892 35.1062 52.7353 35.1055 52.0531V43.1121C35.1062 42.43 35.3775 41.776 35.8598 41.2936C36.3421 40.8113 36.996 40.5399 37.6781 40.5391H44.0348C44.7169 40.5399 45.3709 40.8112 45.8533 41.2936C46.3356 41.776 46.607 42.4299 46.6078 43.1121V52.0531C46.607 52.7353 46.3356 53.3893 45.8533 53.8716C45.3709 54.354 44.7169 54.6253 44.0348 54.6262ZM37.6781 42.1016C37.4103 42.102 37.1535 42.2086 36.9642 42.398C36.7748 42.5875 36.6683 42.8443 36.668 43.1121V52.0531C36.6683 52.321 36.7748 52.5778 36.9642 52.7672C37.1535 52.9566 37.4103 53.0633 37.6781 53.0637H44.0348C44.3027 53.0634 44.5595 52.9568 44.749 52.7673C44.9384 52.5779 45.045 52.321 45.0453 52.0531V43.1121C45.045 42.8442 44.9384 42.5873 44.749 42.3979C44.5595 42.2084 44.3027 42.1019 44.0348 42.1016H37.6781Z" fill="#3762CC"/>
<path d="M96.0938 94.1406H52.7344C52.0092 94.1406 51.3137 93.8525 50.8009 93.3397C50.2881 92.827 50 92.1315 50 91.4062V35.5469C50 34.8217 50.2881 34.1262 50.8009 33.6134C51.3137 33.1006 52.0092 32.8125 52.7344 32.8125H96.0938C96.819 32.8125 97.5145 33.1006 98.0272 33.6134C98.54 34.1262 98.8281 34.8217 98.8281 35.5469V91.4062C98.8281 92.1315 98.54 92.827 98.0272 93.3397C97.5145 93.8525 96.819 94.1406 96.0938 94.1406Z" fill="#E0EBFC"/>
<path d="M73.3529 71.4598C81.974 71.4598 88.9627 64.471 88.9627 55.85C88.9627 47.229 81.974 40.2402 73.3529 40.2402C64.7319 40.2402 57.7432 47.229 57.7432 55.85C57.7432 64.471 64.7319 71.4598 73.3529 71.4598Z" fill="#6BDDDD"/>
<path d="M73.3525 57.4137C72.9381 57.4137 72.5407 57.2491 72.2477 56.956C71.9547 56.663 71.79 56.2656 71.79 55.8512V45.9922C71.79 45.5778 71.9547 45.1804 72.2477 44.8873C72.5407 44.5943 72.9381 44.4297 73.3525 44.4297C73.7669 44.4297 74.1644 44.5943 74.4574 44.8873C74.7504 45.1804 74.915 45.5778 74.915 45.9922V55.8512C74.915 56.2656 74.7504 56.663 74.4574 56.956C74.1644 57.2491 73.7669 57.4137 73.3525 57.4137Z" fill="#4671C6"/>
<path d="M79.8338 57.4121H73.3525C72.9381 57.4121 72.5407 57.2475 72.2477 56.9545C71.9547 56.6614 71.79 56.264 71.79 55.8496C71.79 55.4352 71.9547 55.0378 72.2477 54.7448C72.5407 54.4517 72.9381 54.2871 73.3525 54.2871H79.8338C80.2482 54.2871 80.6456 54.4517 80.9386 54.7448C81.2317 55.0378 81.3963 55.4352 81.3963 55.8496C81.3963 56.264 81.2317 56.6614 80.9386 56.9545C80.6456 57.2475 80.2482 57.4121 79.8338 57.4121Z" fill="#4671C6"/>
<path d="M92.1484 55.8199L90.459 55.4883C90.2648 46.2176 82.6688 38.7344 73.3523 38.7344C63.9145 38.7344 56.2363 46.4125 56.2363 55.8504C56.2363 65.2883 63.9145 72.9664 73.3523 72.9664C77.4581 72.9669 81.4272 71.4911 84.5352 68.8082C84.6848 68.6789 84.8076 68.5214 84.8964 68.3447C84.9852 68.168 85.0384 67.9755 85.0528 67.7783C85.0673 67.581 85.0427 67.3829 84.9806 67.1951C84.9184 67.0074 84.8199 66.8337 84.6906 66.684C84.5614 66.5343 84.4039 66.4115 84.2272 66.3227C84.0504 66.2339 83.858 66.1807 83.6607 66.1663C83.4635 66.1519 83.2653 66.1764 83.0775 66.2386C82.8898 66.3007 82.7161 66.3992 82.5664 66.5285C80.0054 68.7387 76.7352 69.9544 73.3523 69.9539C65.5758 69.9539 59.2488 63.627 59.2488 55.8504C59.2488 48.0738 65.5754 41.7469 73.3523 41.7469C80.8066 41.7469 86.9246 47.5609 87.4195 54.8914L86.1227 54.6367C86.0275 54.618 85.9291 54.625 85.8374 54.6568C85.7458 54.6886 85.6643 54.7442 85.6012 54.8179C85.5381 54.8915 85.4957 54.9806 85.4783 55.076C85.461 55.1714 85.4693 55.2698 85.5023 55.3609L87.5324 60.9566C87.5646 61.0454 87.6192 61.1243 87.6909 61.1857C87.7627 61.2472 87.849 61.289 87.9417 61.3072C88.0343 61.3254 88.1301 61.3194 88.2197 61.2896C88.3093 61.2599 88.3897 61.2075 88.4531 61.1375L92.4488 56.725C92.5139 56.6531 92.5588 56.5652 92.5788 56.4703C92.5988 56.3754 92.5933 56.2769 92.5627 56.1848C92.5322 56.0928 92.4777 56.0105 92.4049 55.9463C92.3321 55.8822 92.2436 55.8386 92.1484 55.8199Z" fill="#F9A7A7"/>
<path d="M91.9273 81.6109H56.9012C56.5301 81.6109 56.1742 81.4635 55.9118 81.2011C55.6494 80.9387 55.502 80.5828 55.502 80.2117C55.502 79.8406 55.6494 79.4847 55.9118 79.2223C56.1742 78.9599 56.5301 78.8125 56.9012 78.8125H91.9273C92.2984 78.8125 92.6543 78.9599 92.9167 79.2223C93.1791 79.4847 93.3266 79.8406 93.3266 80.2117C93.3266 80.5828 93.1791 80.9387 92.9167 81.2011C92.6543 81.4635 92.2984 81.6109 91.9273 81.6109ZM91.9273 88.2543H56.9012C56.5301 88.2543 56.1742 88.1069 55.9118 87.8445C55.6494 87.5821 55.502 87.2262 55.502 86.8551C55.502 86.484 55.6494 86.1281 55.9118 85.8657C56.1742 85.6033 56.5301 85.4559 56.9012 85.4559H91.9273C92.2984 85.4559 92.6543 85.6033 92.9167 85.8657C93.1791 86.1281 93.3266 86.484 93.3266 86.8551C93.3266 87.2262 93.1791 87.5821 92.9167 87.8445C92.6543 88.1069 92.2984 88.2543 91.9273 88.2543Z" fill="#A4C9FF"/>
<path d="M96.0938 94.9219H52.7344C50.7957 94.9219 49.2188 93.3445 49.2188 91.4062V35.5469C49.2188 33.6086 50.7957 32.0312 52.7344 32.0312H96.0938C98.0324 32.0312 99.6094 33.6086 99.6094 35.5469V91.4062C99.6094 93.3445 98.0324 94.9219 96.0938 94.9219ZM52.7344 33.5938C51.6574 33.5938 50.7812 34.4699 50.7812 35.5469V91.4062C50.7812 92.4832 51.6574 93.3594 52.7344 93.3594H96.0938C97.1707 93.3594 98.0469 92.4832 98.0469 91.4062V35.5469C98.0469 34.4699 97.1707 33.5938 96.0938 33.5938H52.7344Z" fill="#3762CC"/>
<path d="M73.3523 73.7473C63.4836 73.7473 55.4551 65.7188 55.4551 55.8504C55.4551 45.9816 63.484 37.9531 73.3523 37.9531C82.802 37.9531 90.6863 45.4719 91.2152 54.8406L92.298 55.0535C92.5288 55.0991 92.7433 55.2051 92.9197 55.3606C93.0961 55.5162 93.2281 55.7157 93.3023 55.9389C93.3765 56.1621 93.3901 56.4009 93.3419 56.6311C93.2937 56.8613 93.1853 57.0746 93.0277 57.2492L89.032 61.6617C88.8788 61.8326 88.6837 61.9605 88.4659 62.0328C88.2481 62.105 88.0152 62.1192 87.7902 62.0738C87.5651 62.0306 87.3551 61.9294 87.181 61.7802C87.0069 61.631 86.8748 61.439 86.7977 61.223L84.7676 55.6273C84.6043 55.1777 84.6961 54.6727 85.0074 54.3094C85.3187 53.9461 85.8047 53.7773 86.273 53.8699L86.5305 53.9203C85.5879 47.4543 79.9867 42.5273 73.3519 42.5273C66.0059 42.5273 60.0297 48.5035 60.0297 55.8496C60.0297 63.1953 66.0062 69.1715 73.3519 69.1715C76.5471 69.1721 79.636 68.0237 82.0547 65.9359C82.5142 65.5402 83.1119 65.3428 83.7167 65.3871C84.3215 65.4313 84.8842 65.7135 85.2812 66.1719C85.6771 66.6313 85.8746 67.2289 85.8304 67.8337C85.7862 68.4386 85.5038 69.0012 85.0453 69.3981C81.796 72.2042 77.6457 73.748 73.3523 73.7473ZM73.3523 39.5156C64.3449 39.5156 57.0176 46.8434 57.0176 55.8504C57.0176 64.8574 64.3453 72.1848 73.3523 72.1848C77.2705 72.1852 81.0582 70.7767 84.0242 68.2164C84.3266 67.9555 84.3602 67.4965 84.0988 67.1941C83.9729 67.049 83.7946 66.9596 83.6029 66.9457C83.4112 66.9317 83.2218 66.9942 83.0762 67.1195C80.3734 69.4521 76.9221 70.7352 73.3519 70.7348C65.1441 70.7348 58.4672 64.0574 58.4672 55.8504C58.4672 47.643 65.1445 40.9656 73.3519 40.9656C81.1519 40.9656 87.673 47.0594 88.1984 54.8391C88.2065 54.9586 88.187 55.0784 88.1414 55.1892C88.0958 55.3 88.0254 55.3989 87.9355 55.4781C87.8458 55.5576 87.7388 55.6152 87.6231 55.6464C87.5073 55.6777 87.3859 55.6817 87.2684 55.6582L86.3773 55.4832L88.134 60.3258L91.5922 56.5074L90.3082 56.2551C90.1333 56.2208 89.9754 56.1277 89.8607 55.9913C89.746 55.8548 89.6814 55.6833 89.6777 55.5051C89.4934 46.6879 82.1695 39.5156 73.3523 39.5156Z" fill="#3762CC"/>
</svg>
