<svg width="120" height="121" viewBox="0 0 120 121" fill="none" xmlns="http://www.w3.org/2000/svg">
<path d="M5.13283 120.247L71.0156 93.1528C72.8203 92.4028 73.4531 90.1997 72.3516 88.3716C69.2813 83.1919 62.836 73.1372 54.6563 64.9575C46.7344 57.0356 37.125 50.9888 32.1094 48.0825C30.2813 47.0278 28.1016 47.6606 27.375 49.4419L0.257826 115.395C-0.914049 118.254 2.25001 121.442 5.13283 120.247Z" fill="#ED3F03"/>
<path d="M32.5313 108.992L17.1328 115.32L5.20312 103.367L11.5312 87.9922L32.5313 108.992ZM60.3984 97.5078L45.0234 103.836L16.6641 75.5L22.9922 60.1016L60.3984 97.5078Z" fill="#FCB424"/>
<path d="M57.2109 62.7969C56.9297 62.5156 56.9063 62.0469 57.1641 61.7188L82.7578 30.7344L89.2734 37.25L58.2891 62.8438C57.9844 63.1016 57.5156 63.0781 57.2109 62.7969Z" fill="#07B7EE"/>
<path d="M62.1328 67.0433C65.9297 63.7386 83.3906 49.4183 100.219 51.6683L100.383 61.9808C100.383 61.9808 86.7188 55.6058 63.211 68.5902C62.836 68.8011 62.3906 68.7308 62.0859 68.4261C61.7109 68.0745 61.7109 67.4652 62.0625 67.0902C62.0859 67.0667 62.1094 67.0433 62.1328 67.0433Z" fill="#ED3F03"/>
<path d="M52.9688 57.8984C56.2735 54.1016 70.5938 36.6406 68.3438 19.8125L58.0313 19.6484C58.0313 19.6484 64.4297 33.3125 51.4219 56.8203C51.211 57.1953 51.2813 57.6406 51.586 57.9453C51.961 58.3203 52.5469 58.3203 52.9219 57.9453L52.9688 57.8984Z" fill="#FCB424"/>
<path d="M99.5859 20.5879C97.1953 24.4551 97.2188 28.2754 99.5859 32.1426C99.6094 32.1895 99.6094 32.2598 99.5625 32.2832C99.5391 32.3066 99.4922 32.3066 99.4688 32.2832C95.5781 29.8457 91.7578 29.8926 87.8672 32.2832C87.8203 32.3066 87.75 32.3066 87.7266 32.2598C87.7031 32.2363 87.7031 32.1895 87.7266 32.166C90.1641 28.2754 90.1406 24.4785 87.75 20.5645C87.7266 20.5176 87.7266 20.4473 87.7734 20.4238C87.7969 20.4004 87.8438 20.4004 87.8906 20.4238C91.7578 22.8379 95.5547 22.8379 99.4453 20.4473C99.4922 20.4004 99.5391 20.4004 99.5859 20.4473C99.6328 20.4707 99.6328 20.541 99.5859 20.5879Z" fill="#07B7EE"/>
<path d="M119.906 59.6811C115.383 60.1264 112.383 62.4701 110.742 66.7358C110.719 66.7826 110.672 66.8061 110.602 66.7826C110.555 66.7592 110.531 66.7358 110.531 66.6889C110.086 62.1186 107.742 59.1186 103.477 57.5014C103.43 57.4779 103.406 57.4311 103.43 57.3608C103.453 57.3139 103.477 57.2904 103.523 57.2904C108.094 56.8686 111.094 54.5248 112.734 50.2592C112.758 50.2123 112.805 50.1889 112.875 50.2123C112.922 50.2358 112.945 50.2592 112.945 50.3061C113.391 54.8529 115.711 57.8529 119.953 59.4936C120 59.517 120.023 59.5873 120 59.6342C119.953 59.6576 119.93 59.6811 119.906 59.6811Z" fill="#ED3F03"/>
<path d="M60.8204 0.595132C60.3516 5.11857 58.0313 8.14201 53.7657 9.75919C53.7188 9.78263 53.6954 9.82951 53.7188 9.89982C53.7422 9.94669 53.7657 9.97013 53.8125 9.97013C58.3829 10.392 61.3829 12.7592 63 17.0248C63.0235 17.0717 63.0704 17.0951 63.1407 17.0717C63.1875 17.0483 63.211 17.0248 63.211 16.9779C63.6329 12.4076 65.9766 9.40763 70.2422 7.76701C70.2891 7.74357 70.3125 7.69669 70.2891 7.62638C70.2657 7.57951 70.2422 7.55607 70.1954 7.55607C65.6485 7.11076 62.6485 4.79044 61.0079 0.548257C60.9844 0.501382 60.9375 0.477945 60.8907 0.501382C60.8438 0.52482 60.8204 0.548257 60.8204 0.595132ZM93.9141 79.9311L93.3047 82.228C93.2344 82.4623 93.3047 82.7436 93.4922 82.9076L95.1797 84.5717C95.461 84.853 95.461 85.2748 95.2032 85.5561C95.1094 85.6498 94.9922 85.7201 94.875 85.7436L92.5782 86.3529C92.3204 86.4233 92.1329 86.6108 92.086 86.8451L91.4766 89.142C91.3829 89.517 91.0079 89.7514 90.6329 89.6576C90.4922 89.6342 90.375 89.5639 90.3047 89.4701L88.6407 87.8061C88.4532 87.6186 88.1954 87.5483 87.961 87.6186L85.6641 88.2279C85.2891 88.3451 84.8907 88.1108 84.7969 87.7358C84.75 87.6186 84.75 87.478 84.7969 87.3373L85.4063 85.0405C85.4766 84.8061 85.4063 84.5248 85.2188 84.3608L83.5547 82.6967C83.2735 82.4155 83.2735 81.9936 83.5313 81.7123C83.625 81.6186 83.7422 81.5483 83.8594 81.5248L86.1563 80.9155C86.3907 80.8451 86.6016 80.6576 86.6485 80.4233L87.2579 78.1264C87.3516 77.7514 87.7266 77.517 88.1016 77.6108C88.2188 77.6342 88.336 77.7045 88.4297 77.7983L90.1172 79.4623C90.3047 79.6498 90.5625 79.7201 90.7969 79.6498L93.0938 79.0405C93.4688 78.9233 93.8672 79.1576 93.961 79.5092C93.9375 79.6733 93.9375 79.8139 93.9141 79.9311Z" fill="#FCB424"/>
<path d="M43.6407 29.6613L43.0313 31.9582C42.961 32.1925 43.0313 32.4738 43.2188 32.6379L44.8828 34.3254C45.1641 34.6066 45.1641 35.0285 44.9063 35.3097C44.8125 35.4035 44.6953 35.4738 44.5782 35.4972L42.2813 36.1066C42.0469 36.1769 41.836 36.3644 41.7891 36.5988L41.1797 38.8957C41.086 39.2707 40.711 39.505 40.336 39.4113C40.2188 39.3879 40.1016 39.3175 40.0078 39.2238L38.3438 37.5597C38.1563 37.3722 37.8985 37.3019 37.6641 37.3722L35.3672 37.9816C34.9922 38.0988 34.5938 37.8644 34.5 37.5129C34.4532 37.3957 34.4532 37.255 34.5 37.1144L35.1094 34.8175C35.1797 34.5832 35.1094 34.3019 34.9219 34.1379L33.2578 32.4738C32.9766 32.216 32.9766 31.7707 33.2344 31.4894C33.3282 31.3957 33.4453 31.3254 33.5625 31.3019L35.8594 30.6925C36.0938 30.6222 36.3047 30.4347 36.3516 30.1769L36.961 27.88C37.0547 27.505 37.4297 27.2707 37.8047 27.3644C37.9219 27.3879 38.0391 27.4582 38.1328 27.5519L39.7969 29.2394C39.9844 29.4269 40.2422 29.4972 40.4766 29.4269L42.7735 28.8175C43.1485 28.7004 43.5469 28.9347 43.6407 29.3097C43.6641 29.4035 43.6641 29.5441 43.6407 29.6613Z" fill="#ED3F03"/>
</svg>
