<svg width="100" height="100" viewBox="0 0 100 100" fill="none" xmlns="http://www.w3.org/2000/svg">
<path fill-rule="evenodd" clip-rule="evenodd" d="M11.046 74.8421L26.245 66.0365C29.0976 64.3837 31.9981 63.212 35.1333 64.229C38.629 65.3626 44.337 67.7968 50.1583 68.8468C52.319 69.5474 53.6661 71.7109 53.0784 73.9046C52.4905 76.0988 50.6364 77.23 48.0206 76.8253L50.0556 77.1511C52.3874 77.5241 54.529 77.2048 56.5698 76.0163L71.1829 67.505C82.5421 60.8894 84.2104 71.0671 80.4337 73.3923L53.9147 89.7216C51.4757 91.2232 48.8069 91.5736 46.0401 90.832L26.805 85.6779L19.6815 89.7905C18.312 90.5814 16.5499 90.1093 15.7591 88.7396L9.99873 78.7624C9.20869 77.3941 9.67881 75.6343 11.046 74.8421Z" fill="#F6DCCD"/>
<path fill-rule="evenodd" clip-rule="evenodd" d="M52.7316 74.8148C51.9193 76.4023 50.2457 77.1697 48.0205 76.8253C44.8697 75.9921 41.7225 75.1378 38.5742 74.2945C38.1744 74.1814 37.8352 73.9155 37.63 73.5542C37.4247 73.193 37.3699 72.7655 37.4775 72.3642C37.585 71.9628 37.8462 71.62 38.2045 71.4097C38.5629 71.1995 38.9896 71.1388 39.3924 71.2408L52.7316 74.8148ZM11.0461 74.8421L26.2451 66.0365C29.0976 64.3837 31.9982 63.212 35.1334 64.229C37.0035 64.8355 39.5072 65.8142 42.3224 66.754L12.8799 83.7529L9.99882 78.7624C9.20858 77.3941 9.6789 75.6343 11.0461 74.8421Z" fill="#F1CBBC"/>
<path fill-rule="evenodd" clip-rule="evenodd" d="M12.5618 70.0473L24.6157 91.3457C25.1985 92.3756 24.8329 93.6951 23.803 94.2779L19.703 96.5984C18.6731 97.1812 17.3538 96.8156 16.7708 95.7857L4.71688 74.4871C4.13407 73.4572 4.49989 72.1379 5.52958 71.5549L9.62958 69.2344C10.6595 68.6518 11.979 69.0174 12.5618 70.0473Z" fill="#D1D1D6"/>
<path fill-rule="evenodd" clip-rule="evenodd" d="M18.9014 84.6805L21.035 88.4502L23.1447 92.1779C23.7264 93.2057 23.3633 94.5219 22.3383 95.1064L23.8029 94.2775C24.8328 93.6947 25.1984 92.3752 24.6156 91.3453L22.4986 87.6049L18.248 80.0943L13.9926 72.5756L12.5615 70.0471C12.0566 69.1549 10.999 68.7613 10.0557 69.051L12.5334 73.4287L16.784 80.9392L18.901 84.6797L18.9014 84.6805Z" fill="#B1B1B5"/>
<path fill-rule="evenodd" clip-rule="evenodd" d="M9.80591 73.2298C9.61386 73.2555 9.42882 73.319 9.26153 73.4168C9.09424 73.5146 8.94801 73.6446 8.83134 73.7992C8.71466 73.9539 8.62985 74.1303 8.58182 74.318C8.53379 74.5057 8.52351 74.7011 8.55155 74.8928C8.5796 75.0845 8.64543 75.2688 8.74521 75.4349C8.845 75.6009 8.97677 75.7456 9.13287 75.8604C9.28897 75.9752 9.4663 76.0578 9.65459 76.1036C9.84288 76.1493 10.0384 76.1572 10.2297 76.1268C10.6102 76.0664 10.9515 75.8585 11.1797 75.5482C11.4079 75.2379 11.5046 74.8501 11.4488 74.4689C11.3931 74.0878 11.1893 73.744 10.8818 73.512C10.5743 73.28 10.1877 73.1786 9.80591 73.2298Z" fill="#685E68"/>
<path fill-rule="evenodd" clip-rule="evenodd" d="M53.2164 14.5342L57.7643 14.5344V8.26016C57.7643 5.43477 55.4525 3.12305 52.6271 3.12305H37.2906C34.4652 3.12305 32.1533 5.43477 32.1533 8.26016V14.5346L36.701 14.5342V8.26016C36.701 7.94492 36.9754 7.6709 37.2906 7.6709H52.6271C52.9424 7.6709 53.2164 7.94512 53.2164 8.26016V14.5342Z" fill="#837683"/>
<path fill-rule="evenodd" clip-rule="evenodd" d="M53.2164 14.5344L57.7643 14.5348L55.1215 14.5344V8.26035C55.1215 7.94531 54.8475 7.67109 54.5322 7.67109H52.6271C52.9424 7.67109 53.2164 7.94531 53.2164 8.26035V14.5344ZM39.1957 3.12305H37.2906C34.4652 3.12305 32.1533 5.43477 32.1533 8.26016V14.5346L34.0584 14.5344V8.26035C34.0584 5.43496 36.3703 3.12305 39.1957 3.12305Z" fill="#685E68"/>
<path fill-rule="evenodd" clip-rule="evenodd" d="M15.085 29.0137V54.649C15.085 57.2893 17.2451 59.4496 19.8855 59.4496H70.033C72.6732 59.4496 74.8336 57.2895 74.8336 54.649V29.0146L15.085 29.0137Z" fill="#ECBA78"/>
<path fill-rule="evenodd" clip-rule="evenodd" d="M15.085 29.0137V54.649C15.085 57.2893 17.2451 59.4496 19.8855 59.4496H23.6957C21.0553 59.4496 18.8951 57.2893 18.8951 54.649V29.0137H15.085Z" fill="#E3A76F"/>
<path fill-rule="evenodd" clip-rule="evenodd" d="M73.3387 34.1428C73.8666 33.8088 74.3691 33.4533 74.8332 33.0723C76.5602 31.6547 77.7568 29.8846 77.7568 27.5609V15.8582C77.7568 14.5035 76.6518 13.3984 75.2971 13.3984H14.6207C13.266 13.3984 12.1611 14.5033 12.1611 15.8582V27.5607C12.1611 29.8842 13.3578 31.6543 15.0846 33.0719C15.549 33.4531 16.0516 33.8088 16.5793 34.1428C26.5662 40.4613 63.4246 40.415 73.3387 34.1428Z" fill="#E3A76F"/>
<path fill-rule="evenodd" clip-rule="evenodd" d="M18.8947 13.3984H14.6207C13.266 13.3984 12.1611 14.5035 12.1611 15.8582V27.5607C12.1611 29.8842 13.3578 31.6543 15.0846 33.0719C15.5488 33.4531 16.0516 33.8088 16.5793 34.1428C17.2383 34.5598 18.0172 34.9482 18.8947 35.3098V13.3984ZM27.832 13.3984H62.0861V21.3969C62.0861 23.0932 60.6984 24.4809 59.0021 24.4809H30.916C29.2197 24.4809 27.832 23.0932 27.832 21.3969V13.3984Z" fill="#C48958"/>
<path fill-rule="evenodd" clip-rule="evenodd" d="M38.9141 39.6389C38.9141 42.9775 41.6205 45.684 44.9594 45.684C48.298 45.684 51.0045 42.9775 51.0045 39.6389C51.0045 36.3109 48.3086 33.5938 44.9594 33.5938C41.6102 33.5938 38.9141 36.3105 38.9141 39.6389Z" fill="#837683"/>
<path fill-rule="evenodd" clip-rule="evenodd" d="M38.9141 39.6389C38.9141 42.9775 41.6205 45.684 44.9594 45.684C45.2836 45.684 45.6016 45.6582 45.9119 45.609C43.0258 45.1521 40.8191 42.6533 40.8191 39.6389C40.8191 36.6328 43.0184 34.1258 45.9119 33.6686C45.5968 33.6187 45.2784 33.5937 44.9594 33.5938C41.6102 33.5938 38.9141 36.3105 38.9141 39.6389Z" fill="#685E68"/>
<path fill-rule="evenodd" clip-rule="evenodd" d="M80.8998 23.6998C82.5157 24.0847 84.0599 24.7249 85.4742 25.5961L88.4467 24.276L91.95 27.7793L90.6301 30.7508C91.5017 32.1654 92.1421 33.7101 92.527 35.3266L95.5596 36.4937V41.4482L92.5262 42.6158C92.1413 44.2318 91.5011 45.776 90.6297 47.1902L91.9498 50.1627L88.4465 53.666L85.475 52.3463C84.0604 53.2178 82.5158 53.8581 80.8994 54.243L79.732 57.2756H74.7775L73.61 54.2422C71.994 53.8573 70.4498 53.2171 69.0355 52.3457L66.0631 53.6658L62.5598 50.1625L63.8795 47.191C63.008 45.7764 62.3677 44.2318 61.9828 42.6154L58.9502 41.448V36.4936L61.9832 35.3262C62.3681 33.7101 63.0083 32.1658 63.8797 30.7514L62.5596 27.7791L66.0629 24.2756L69.0353 25.5957C70.4497 24.7245 71.9939 24.0843 73.6098 23.6994L74.7773 20.666H79.7318L80.8998 23.6998Z" fill="#FFE177"/>
<path fill-rule="evenodd" clip-rule="evenodd" d="M69.0357 52.3477L66.0633 53.6678L65.6057 53.2102L68.3926 51.9725C68.604 52.1026 68.8184 52.2277 69.0357 52.3477ZM80.8998 23.7016C82.5157 24.0865 84.0599 24.7266 85.4742 25.5979L84.6293 25.973C83.2146 25.102 81.0277 24.0859 79.4115 23.7014L78.2439 20.668H79.7322L80.8998 23.7016ZM85.4752 52.348C84.0606 53.2196 82.516 53.8599 80.8996 54.2447L79.7322 57.2773H78.2439L79.4111 54.2447C81.0277 53.8602 83.2152 52.8441 84.6299 51.9727L85.4752 52.348ZM65.6055 24.7354L66.0631 24.2777L69.0355 25.5979C68.8182 25.7178 68.6037 25.8429 68.3922 25.973L65.6055 24.7354ZM87.416 24.7354L88.4465 24.2777L91.9498 27.7811L90.6299 30.7525C91.5015 32.1672 92.1419 33.7119 92.5268 35.3283L95.5594 36.4955V41.45L92.526 42.6176C92.1411 44.2335 91.5009 45.7777 90.6295 47.192L91.9496 50.1645L88.4463 53.6678L87.4158 53.2102L90.4615 50.1645L89.1414 47.192C90.0127 45.7777 90.6529 44.2335 91.0379 42.6176L94.0713 41.45V36.4955L91.0387 35.3283C90.6538 33.7119 90.0134 32.1672 89.1418 30.7525L90.4617 27.7811L87.416 24.7354Z" fill="#FFD064"/>
<path d="M83.7195 46.8716C88.09 43.287 88.7271 36.8382 85.1425 32.4677C81.5579 28.0972 75.1091 27.4601 70.7386 31.0447C66.3682 34.6293 65.7311 41.0781 69.3156 45.4486C72.9002 49.8191 79.3491 50.4562 83.7195 46.8716Z" fill="#FFC338"/>
<path fill-rule="evenodd" clip-rule="evenodd" d="M77.2549 28.7344C71.6006 28.7344 67.0176 33.3174 67.0176 38.9717C67.0176 44.626 71.6006 49.209 77.2549 49.209C77.5289 49.209 77.8006 49.1979 78.0691 49.1768C72.7957 48.7617 68.6463 44.352 68.6463 38.9717C68.6463 33.5914 72.7957 29.1814 78.0691 28.7666C77.7982 28.7452 77.5266 28.7345 77.2549 28.7344Z" fill="#F5B829"/>
<path fill-rule="evenodd" clip-rule="evenodd" d="M81.7094 35.2582C81.861 35.6386 81.8572 36.0633 81.6988 36.441C81.5404 36.8186 81.2401 37.1189 80.8625 37.2774C80.4849 37.4358 80.0602 37.4396 79.6798 37.288C79.2993 37.1364 78.9937 36.8415 78.8285 36.4668C78.6174 35.9639 78.2174 35.6738 77.7785 35.5627C77.481 35.4873 77.1704 35.4793 76.8693 35.5391C76.5973 35.5939 76.3506 35.7014 76.1627 35.8541C75.975 36.0066 75.8558 36.2242 75.8687 36.4914C75.8789 36.7016 75.9973 36.8514 76.1625 36.9592C76.509 37.1854 77.0201 37.3164 77.5146 37.3977C78.3834 37.5402 79.3369 37.7814 80.1517 38.2734C81.1488 38.8752 81.9014 39.7842 82.0715 41.1857C82.0834 41.284 82.0912 41.4117 82.0949 41.5674C82.126 42.8721 81.5346 43.8412 80.6455 44.5158C80.11 44.9223 79.4705 45.2033 78.8176 45.3713V45.4506C78.8176 45.865 78.6529 46.2624 78.3599 46.5554C78.0669 46.8485 77.6695 47.0131 77.2551 47.0131C76.8407 47.0131 76.4432 46.8485 76.1502 46.5554C75.8572 46.2624 75.6926 45.865 75.6926 45.4506V45.3385C75.1955 45.1949 74.7232 44.982 74.2992 44.6996C73.4185 44.1131 72.7433 43.2463 72.4572 42.0986C72.4083 41.8999 72.3991 41.6934 72.43 41.491C72.4609 41.2887 72.5313 41.0944 72.6373 40.9193C72.7433 40.7441 72.8828 40.5916 73.0477 40.4704C73.2126 40.3491 73.3998 40.2616 73.5986 40.2127C73.7974 40.1638 74.0039 40.1546 74.2062 40.1855C74.4086 40.2164 74.6029 40.2868 74.778 40.3928C74.9531 40.4988 75.1056 40.6382 75.2269 40.8032C75.3481 40.9681 75.4357 41.1553 75.4846 41.3541C75.5654 41.6787 75.7621 41.9275 76.0203 42.0996C76.385 42.3424 76.8621 42.458 77.3521 42.4463C77.4236 42.4445 77.5277 42.4355 77.6642 42.4189C78.0861 42.3678 78.4949 42.2432 78.7654 42.0379C78.8976 41.9377 78.9857 41.8049 78.982 41.6406L78.9709 41.552C78.9375 41.2758 78.7678 41.0838 78.5404 40.9467C78.1312 40.6996 77.558 40.5629 77.014 40.4736C76.1664 40.3346 75.2402 40.077 74.4656 39.5713C73.5099 38.9473 72.823 38.0217 72.7558 36.6377C72.6898 35.2772 73.2746 34.1869 74.1973 33.4369C74.6322 33.0834 75.1435 32.8131 75.6926 32.6352V32.4941C75.6926 32.0797 75.8572 31.6823 76.1502 31.3893C76.4432 31.0963 76.8407 30.9316 77.2551 30.9316C77.6695 30.9316 78.0669 31.0963 78.3599 31.3893C78.6529 31.6823 78.8176 32.0797 78.8176 32.4941V32.6154C80.0344 33.0002 81.1197 33.8537 81.7094 35.2582Z" fill="#FFE177"/>
</svg>
