<svg width="100" height="100" viewBox="0 0 100 100" fill="none" xmlns="http://www.w3.org/2000/svg">
<g clip-path="url(#clip0_2419_65264)">
<path d="M64.654 48.2391H55.8384C54.5038 48.2391 53.412 47.1473 53.412 45.8127L52.1989 25.2531C52.1989 25.2531 50.2358 8.22304 60.418 5.98515C60.418 5.98515 64.5581 -2.0711 77.8171 0.509954C77.9983 0.545306 78.1725 0.610345 78.3485 0.664837C81.4618 1.63054 84.2944 3.33685 86.6036 5.63749C93.8243 12.8226 92.3723 21.3117 92.5534 22.3676C92.5534 28.2654 92.6466 21.71 91.3403 45.8129C91.3403 47.1475 90.2485 48.2393 88.9139 48.2393H79.5352" fill="#7F7369"/>
<path d="M66.1865 48.2391V45.354C60.7366 42.9458 57.339 37.7923 57.0527 32.1427C57.0389 31.8827 57.0317 31.6225 57.0312 31.3622C57.0339 22.2848 57.0257 22.8358 57.038 22.6866C56.947 17.8419 57.6966 7.67839 65.4023 5.98484C65.4023 5.98484 67.9394 1.04909 75.4009 0.142258C69.7155 -0.482547 63.0466 1.20671 60.4175 5.98484C53.5466 7.49499 51.8937 15.8612 52.0566 22.8559C52.0589 22.9534 52.0615 23.0485 52.0644 23.1411C52.1046 24.4378 52.1986 25.2528 52.1986 25.2528L53.4116 45.8124C53.4116 47.1469 54.5034 48.2387 55.838 48.2387C57.9734 48.2391 63.8529 48.2391 66.1865 48.2391Z" fill="#72655A"/>
<path d="M44.5814 93.2152L47.1896 69.9088C48.1036 62.8713 47.7288 60.1676 49.9997 57.4121C49.2984 56.5594 48.2972 55.7641 47.637 55.3609L47.5644 55.343C45.1089 53.8721 43.0415 53.8105 38.4786 52.5551L33.8126 50.3217V44.748C29.9034 46.4766 25.4083 46.4162 21.6452 44.7799L21.6251 50.3447L16.979 52.5553C12.4454 53.8027 10.3536 53.8693 7.89327 55.3432L7.82062 55.3611C7.598 55.4979 7.38381 55.648 7.17921 55.8105C3.66339 58.3346 3.60773 61.6135 3.3048 64.0365L1.90851 76.5145C-0.0580931 94.3721 0.00147729 92.9355 0.00147729 94.3121C-0.0293821 96.5785 1.36105 100 5.58507 100C5.97687 100 49.6661 100.002 49.9997 99.9969C46.2157 99.9336 44.2499 97.0473 44.5814 93.2152Z" fill="#DD9A5E"/>
<path d="M5.03214 94.3045C4.99816 92.3355 5.40988 92.3568 8.49445 60.4031C8.81691 57.7598 9.61827 55.6002 11.9241 53.8131C11.5749 53.9238 9.81007 54.1943 7.89347 55.3426L7.82081 55.3605C7.59823 55.4974 7.38404 55.6475 7.17941 55.81C3.66359 58.334 3.60792 61.6129 3.30499 64.0359C3.2798 64.2568 0.00147729 93.3457 0.00147729 94.3115C-0.0293821 96.5779 1.36105 99.9996 5.58507 99.9996H10.6155C6.99249 99.9996 4.96847 97.2742 5.03214 94.3045ZM26.6568 55.1035V45.9879C24.8452 45.8662 23.1497 45.4332 21.6452 44.7793L21.6251 50.3441L26.6568 55.1035Z" fill="#D38D54"/>
<path d="M99.9596 93.2139C96.4067 61.751 96.6069 62.6389 96.2887 61.101C95.7725 58.6047 94.2676 56.6354 92.1786 55.3596L92.1061 55.3416C91.217 54.809 90.2258 54.3893 89.1616 54.0826L78.9176 51.5324C78.5846 51.3816 78.3541 50.8857 78.3541 50.3203V45.3793C74.4932 47.0631 69.9934 47.0363 66.1868 45.3535V50.3205C66.1868 50.8859 65.9563 51.3818 65.6233 51.5326C56.9575 53.8412 55.0301 53.7873 52.4348 55.3418L52.3624 55.3598C49.4956 57.1105 48.3875 59.4834 48.0055 62.6158L44.5813 93.2139C44.2381 97.1807 46.3411 99.9988 50.1268 99.9988H94.4143C98.6383 99.9988 100.029 96.5772 99.9979 94.3107V94.3037C100.004 93.94 99.9909 93.5763 99.9596 93.2139Z" fill="#EAB883"/>
<path d="M49.5734 94.3115V94.3045C49.5675 93.9408 49.5802 93.577 49.6115 93.2147L53.0358 60.8057C53.4018 57.8041 54.4242 55.4328 57.307 53.6035C56.4608 53.8598 54.5315 54.0865 52.4348 55.3424L52.3623 55.3604C49.4955 57.1111 48.3873 59.4842 48.0055 62.6164L44.5813 93.2145C44.2383 97.1813 46.341 99.9994 50.1268 99.9994H55.1572C50.9328 99.9996 49.5426 96.5779 49.5734 94.3115Z" fill="#D8A373"/>
<path d="M98.0906 76.5094C96.476 62.1762 96.5457 62.3424 96.2893 61.101C95.7701 58.5906 94.2486 56.623 92.1791 55.3596L92.1066 55.3416C91.2176 54.809 90.2264 54.3893 89.1621 54.0826L78.9182 51.5324C78.5852 51.3816 78.3547 50.8857 78.3547 50.3203V45.3535C74.4625 47.073 69.9854 47.0316 66.1873 45.3535V50.3203C66.1873 50.8857 65.9568 51.3816 65.6238 51.5324C56.958 53.841 55.0307 53.7869 52.4354 55.3416L52.3629 55.3596C49.5219 57.0939 48.3875 59.4881 48.0061 62.6156L46.4512 76.5092L56.2516 77.5375C56.5026 77.5638 56.7339 77.6853 56.898 77.8771C57.0621 78.0688 57.1465 78.3161 57.1338 78.5682L56.0572 99.9988H88.5436L87.415 78.6512C87.4006 78.377 87.4919 78.1077 87.6702 77.8988C87.8485 77.69 88.1002 77.5576 88.3732 77.5289L98.0906 76.5094Z" fill="#D83D3D"/>
<path d="M46.4512 76.5102L51.3232 77.0213L53.0365 60.8057C53.4023 57.8047 54.4246 55.433 57.3078 53.6035C56.0896 53.9301 54.3166 54.2156 52.4355 55.3426L52.3631 55.3605C50.2664 56.6404 48.7672 58.6148 48.2529 61.102C47.9371 62.627 47.9969 62.9598 46.4512 76.5102Z" fill="#A82626"/>
<path d="M47.6008 55.3596C47.5766 55.3536 47.5523 55.3476 47.5281 55.3416C45.0672 53.8674 42.9668 53.7982 38.4742 52.5617L38.4785 52.5537L33.8125 50.3203L33.7787 50.3713L33.7777 50.3529L27.6924 56.0824L21.6248 50.3434L16.9787 52.5539C12.4449 53.8014 10.3533 53.868 7.89297 55.3418L7.82031 55.3598C4.95332 57.1104 3.84551 59.4842 3.46348 62.6158L1.9082 76.5131L11.5211 77.5217C11.813 77.5524 12.082 77.6937 12.2728 77.9167C12.4637 78.1396 12.5619 78.4272 12.5473 78.7203L11.4789 99.9988H43.9652L42.8367 78.6537C42.8222 78.3788 42.9137 78.1087 43.0925 77.8993C43.2713 77.69 43.5236 77.5572 43.7975 77.5285L46.367 77.259C48.251 61.6295 47.7 60.2266 49.9824 57.433C49.4818 56.8199 48.1469 55.693 47.6008 55.3596Z" fill="#70BBEF"/>
<path d="M8.49492 60.4025C8.81738 57.7592 9.61875 55.5996 11.9246 53.8125C11.4678 53.9422 9.75039 54.2299 7.89394 55.342L7.82129 55.36C7.14102 55.7754 6.12812 56.5902 5.43984 57.433C3.0043 60.4147 3.6666 62.766 1.90918 76.5135L6.88125 77.0352C6.86641 77.1934 7.08066 75.0522 8.49492 60.4025Z" fill="#4CAEE5"/>
<path d="M83.0201 52.5539L78.9176 51.5326C78.5846 51.3818 78.3541 50.8859 78.3541 50.3205V44.75C74.4295 46.484 69.9469 46.4113 66.1867 44.75V50.3205C66.1867 50.8859 65.9562 51.3818 65.6232 51.5326L61.459 52.5693C66.4639 60.9869 78.0191 60.9902 83.0201 52.5539Z" fill="#EAB883"/>
<path d="M8.62109 24.3161V19.0712C8.62109 3.63293 26.0742 -5.2991 38.5959 3.42394C48.4178 10.2816 46.5471 20.3659 46.7631 24.3161" fill="#4C4846"/>
<path d="M8.62109 24.3161V19.0712C8.62109 3.63293 26.0742 -5.2991 38.5959 3.42394C48.4178 10.2816 46.5471 20.3659 46.7631 24.3161" fill="#4C4846"/>
<path d="M29.5936 0.0943577C18.5025 -1.00681 8.62109 7.66467 8.62109 19.0703V24.3153H12.424V19.0703C12.424 9.26565 19.8688 1.06057 29.5936 0.0943577Z" fill="#3F3B39"/>
<path d="M47.7123 26.0221C47.7123 28.2199 45.5848 30.0014 42.9604 30.0014V22.043C45.5848 22.043 47.7123 23.8244 47.7123 26.0221ZM7.67188 26.0221C7.67188 28.2199 9.79941 30.0014 12.424 30.0014V22.043C9.79941 22.043 7.67188 23.8244 7.67188 26.0221Z" fill="#DD9A5E"/>
<path d="M42.9605 26.4232V30C45.5849 30 47.7125 28.2186 47.7125 26.0207C47.7125 25.3773 47.5291 24.7701 47.2053 24.2324C46.423 25.5316 44.8166 26.4232 42.9605 26.4232ZM8.17929 24.2324C6.60253 26.8512 8.86464 30 12.4242 30V26.4232C10.568 26.4232 8.96152 25.5316 8.17929 24.2324Z" fill="#D38D54"/>
<path d="M39.4429 16.5127C39.3874 14.9877 38.1315 14.1521 36.92 14.3408C36.6368 14.3847 36.3241 14.4306 36.1237 14.459C30.1042 15.3134 24.3817 15.2595 18.4655 14.3408C17.2632 14.1535 15.9973 14.9756 15.9427 16.5129C15.86 18.7785 14.9182 20.4631 13.4833 21.5123C12.8854 21.9498 12.4444 22.0994 12.4243 22.1105C12.4243 31.9937 12.3063 32.6543 12.8358 34.8931C13.3224 36.948 14.2321 38.8789 15.5067 40.5625C22.6108 49.9576 37.4845 48.1234 41.8946 36.9791C43.3544 33.2914 42.961 30.4918 42.961 22.1105C42.904 22.0679 39.6007 20.8965 39.4429 16.5127Z" fill="#EDAE6B"/>
<path d="M18.0223 37.4174C16.9442 33.5745 17.5424 31.227 17.3738 23.943C17.3738 23.193 17.7504 22.5557 18.21 22.2299C20.0227 20.9405 20.8455 18.8321 20.8969 16.5815C20.9147 15.8243 21.2693 15.1743 21.7928 14.7667C20.6799 14.6551 19.5702 14.5137 18.4649 14.3426C17.2658 14.1559 15.9971 14.9751 15.942 16.5147C15.8592 18.7764 14.9192 20.4637 13.4826 21.5141C12.8846 21.9518 12.4438 22.1012 12.4236 22.1124C12.4236 32.0559 12.4178 31.5422 12.4379 32.0317C12.7463 39.0077 17.7244 44.6809 23.9377 46.1631C23.6486 45.9473 19.234 41.7417 18.0223 37.4174Z" fill="#DD9A5E"/>
<path d="M29.202 67.0502V54.6629L27.6928 56.0838L26.1836 54.6562V67.0502C26.1836 67.8838 26.8592 68.5594 27.6928 68.5594C28.5264 68.5594 29.202 67.8838 29.202 67.0502Z" fill="#4CAEE5"/>
<path d="M33.8125 50.3203L27.6924 56.0824L30.9961 59.4117C31.627 60.0475 32.6725 59.9855 33.224 59.2797L38.4785 52.5537L33.8125 50.3203Z" fill="#DADADA"/>
<path d="M36.1621 51.4449L33.8125 50.3203L27.6924 56.0824L29.8787 58.2855L36.1621 51.4449ZM31.4455 59.7207C31.7191 59.8429 32.0231 59.8798 32.318 59.8266L31.4455 59.7207Z" fill="#CECCCA"/>
<path d="M21.6248 50.3438L27.6924 56.0828L24.3887 59.4121C23.7578 60.0479 22.7123 59.9859 22.1607 59.2801L16.9062 52.5541L21.6248 50.3438Z" fill="#DADADA"/>
<path d="M23.4152 56.0605L25.5064 58.2859L27.6926 56.0828L21.6252 50.3438L19.1377 51.509L23.4152 56.0605Z" fill="#CECCCA"/>
<path d="M71.2426 53.3951V45.9859C69.4377 45.8623 67.726 45.4301 66.1867 44.75C66.0338 49.1496 66.5853 51.0969 65.6232 51.5328L61.459 52.5695C62.4957 54.3131 63.8973 55.7871 65.5496 56.8717L69.8728 55.282C69.8732 55.2818 71.2426 54.6021 71.2426 53.3951Z" fill="#D8A373"/>
<path d="M86.032 26.3682C86.8912 26.4084 87.5682 27.1156 87.5682 27.9758V29.1303C87.5641 31.1805 87.7068 33.1713 86.9197 35.7795C86.127 38.4086 84.6332 40.824 82.3883 42.8211C72.9168 51.2559 57.6975 44.8885 57.0527 32.1432C57.0498 32.0855 57.0519 32.1596 57.0441 31.9645C57.0359 31.764 57.0316 31.5633 57.0312 31.3627V22.8443C57.0312 21.9459 57.6643 21.1777 58.5432 20.9918C60.1025 20.6621 62.6223 19.7662 64.908 17.3334C65.4824 16.7221 66.4623 16.7539 66.9963 17.4008C69.2143 20.0883 75.2035 25.8621 86.032 26.3682Z" fill="#F7CF9C"/>
<path d="M63.641 38.1324C61.6248 34.0582 62.093 31.1701 62.0617 25.5072V19.6133C60.7184 20.4014 59.4633 20.7963 58.5432 20.9908C57.6641 21.1768 57.0312 21.9449 57.0312 22.8434V31.3615C57.0312 31.6139 57.0445 32.0068 57.0455 32.0301C57.0463 32.0504 57.067 32.4023 57.0811 32.5795C57.7855 41.542 66.049 47.8719 74.8148 46.4193C69.9959 45.6207 65.8305 42.5426 63.641 38.1324Z" fill="#EAB883"/>
<path d="M85.9639 53.2873L83.0205 52.5547C80.7666 56.357 76.7803 58.8859 72.2354 58.8859C72.2354 58.8859 86.0248 72.6768 85.9639 53.2873Z" fill="#B72C2C"/>
<path d="M58.5715 53.2873L61.5148 52.5547C63.7688 56.357 67.7551 58.8859 72.3 58.8859C72.3 58.8857 58.5106 72.6768 58.5715 53.2873Z" fill="#B72C2C"/>
<path d="M65.7404 56.9557C63.3074 58.251 60.5037 58.8691 58.708 56.4668C60.1367 71.0506 72.2998 58.8867 72.2998 58.8867C69.9 58.8867 67.6561 58.1811 65.7404 56.9557Z" fill="#A82626"/>
<path d="M78.7947 56.9557C81.2277 58.251 84.0315 58.8691 85.8272 56.4668C84.3984 71.0506 72.2354 58.8867 72.2354 58.8867C74.6354 58.8867 76.8791 58.1811 78.7947 56.9557Z" fill="#A82626"/>
<path d="M60.4329 54.1568C54.6487 46.865 43.4784 47.6562 38.6739 55.4287C35.8624 59.9709 36.9231 64.1093 36.6901 65.3755H63.3102C63.2258 62.7752 63.9428 58.5777 60.4329 54.1568Z" fill="#996123"/>
<path d="M40.3004 59.3443C40.3599 59.0921 40.5005 58.5937 40.5068 58.5728C41.9904 53.6523 46.2818 49.8669 51.6254 49.2156C49.0982 48.9035 46.5346 49.323 44.2388 50.4242C41.9429 51.5255 40.0112 53.2622 38.6728 55.4285C35.8613 59.9707 36.9222 64.1083 36.689 65.3753H39.9414C39.9451 62.5986 39.8382 61.3033 40.3004 59.3443Z" fill="#8E551C"/>
<path d="M67.2727 76.5148C66.1033 72.8869 64.5871 70.6223 63.4313 69.4414C62.7641 70.0988 61.8389 70.5662 60.7861 70.734C62.717 73.5182 62.2939 76.2969 62.1977 77.9502C62.1537 78.7045 62.8326 79.2967 63.5723 79.1432L66.0367 78.632C66.9955 78.4332 67.5731 77.4465 67.2727 76.5148Z" fill="#996123"/>
<path d="M64.7283 67.1467C64.7283 69.2777 62.6656 71.0047 60.1211 71.0047V63.2891C62.6656 63.2891 64.7283 65.016 64.7283 67.1467Z" fill="#EFD0A3"/>
<path d="M32.7271 76.5148C33.8965 72.8869 35.4127 70.6223 36.5686 69.4414C37.2357 70.0988 38.1609 70.5662 39.2137 70.734C37.2828 73.5182 37.7059 76.2969 37.8021 77.9502C37.8461 78.7045 37.1672 79.2967 36.4273 79.1432L33.9629 78.632C33.0045 78.4332 32.427 77.4465 32.7271 76.5148Z" fill="#8E551C"/>
<path d="M35.2715 67.1467C35.2715 69.2777 37.3342 71.0047 39.8787 71.0047V63.2891C37.3342 63.2891 35.2715 65.016 35.2715 67.1467Z" fill="#EFD0A3"/>
<path d="M60.1201 67.6998V71.0045C63.5343 71.0045 65.7175 68.0225 64.2839 65.4941C63.5449 66.798 61.9586 67.6998 60.1201 67.6998ZM35.7144 65.4941C34.2783 68.027 36.4736 71.0045 39.8783 71.0045V67.6998C38.04 67.6998 36.4537 66.798 35.7144 65.4941Z" fill="#E2BF91"/>
<path d="M67.1145 100L66.0648 90.6205C65.8254 88.6562 65.1346 87.0064 63.1768 85.8107L63.1287 85.7988C61.4154 84.7725 60.1723 84.8152 54.3865 83.2738C53.7469 82.9842 54.1182 81.7432 54.0131 78.5914C51.4281 79.7227 48.4359 79.6756 45.9479 78.5742C45.8455 81.6527 46.2166 82.9828 45.5744 83.2738C39.7998 84.8123 38.5477 84.7713 36.8324 85.7988L36.7844 85.8107C35.4043 86.6537 34.4031 87.9563 34.06 89.6164C33.8553 90.6063 33.9088 90.6865 32.8467 100H67.1145Z" fill="#EFD0A3"/>
<path d="M32.8457 100H67.1137L66.0641 90.6205C65.825 88.6586 65.1312 87.0045 63.176 85.8107L63.1279 85.7988C61.4293 84.7812 60.06 84.7787 55.4732 83.5445V84.7582C55.4732 85.6277 55.2689 86.4559 54.907 87.1857C54.8304 87.339 54.7471 87.4889 54.6574 87.635L54.5887 87.7432C54.4955 87.886 54.3958 88.0244 54.2898 88.158C54.2424 88.2178 54.1781 88.2951 54.1275 88.3521L54.1031 88.3797C54.0709 88.4166 54.0383 88.4529 54.0049 88.4889L53.9941 88.5004L53.9922 88.5025L53.977 88.5188C53.9383 88.5596 53.8988 88.5994 53.859 88.6389C53.8459 88.652 53.833 88.6654 53.8199 88.6783C53.7684 88.7285 53.7158 88.7777 53.6625 88.826C53.6473 88.8397 53.6314 88.8527 53.6162 88.8664C53.5828 88.8963 53.548 88.9246 53.5143 88.9541C53.509 88.9587 53.5038 88.9633 53.4984 88.9678C53.4779 88.9848 53.457 89.0014 53.4361 89.0182C53.4005 89.047 53.3646 89.0754 53.3283 89.1033C53.3055 89.1209 53.2822 89.1381 53.259 89.1555C53.2059 89.1948 53.1522 89.2332 53.0978 89.2707L53.0799 89.2832C53.0426 89.3086 53.0047 89.3336 52.9666 89.3582L52.9492 89.3693C52.9318 89.3807 52.9145 89.392 52.8969 89.4029C52.8646 89.423 52.832 89.4424 52.7992 89.4617C52.7883 89.4682 52.7775 89.475 52.7666 89.4812L52.7523 89.4896C52.7381 89.4982 52.724 89.5068 52.7096 89.515C52.6467 89.551 52.583 89.5857 52.5186 89.6191C52.5069 89.6252 52.4951 89.6311 52.4832 89.6367L52.451 89.6525C52.4082 89.674 52.3654 89.6955 52.3221 89.716C52.2986 89.727 52.275 89.7373 52.2516 89.7479C52.2082 89.7674 52.1646 89.7867 52.1207 89.8053C52.0941 89.8164 52.0674 89.8272 52.0406 89.8379C51.9288 89.8833 51.8154 89.9246 51.7006 89.9617L51.6355 89.9828L51.6193 89.9881L51.5826 89.9988C51.5469 90.0096 51.5111 90.0201 51.4752 90.0301L51.4225 90.0449L51.4049 90.0498C51.3328 90.069 51.2603 90.0867 51.1875 90.1029L51.1551 90.1098C50.8599 90.1732 50.56 90.2121 50.2584 90.2262C50.2367 90.2273 50.2152 90.2277 50.1938 90.2283L50.1588 90.2295C50.1271 90.2305 50.0957 90.2311 50.0643 90.2314L50.0381 90.2316H50.0316L49.9988 90.2318L49.966 90.2316H49.9594L49.9332 90.2314C49.9017 90.2311 49.8702 90.2304 49.8387 90.2295L49.8037 90.2283C49.7822 90.2275 49.7605 90.2271 49.7391 90.2262C49.4706 90.2137 49.2034 90.1815 48.9396 90.1301C48.9072 90.1236 48.8747 90.1168 48.8424 90.1098C48.8316 90.1074 48.8207 90.1055 48.81 90.1029C48.7372 90.0867 48.6647 90.0689 48.5926 90.0498L48.575 90.0449L48.5223 90.0301C48.4868 90.0201 48.4513 90.0098 48.416 89.9992C48.4035 89.9953 48.3906 89.992 48.3781 89.9881L48.3619 89.9828C48.2249 89.9402 48.0898 89.8919 47.9568 89.8379C47.9301 89.8272 47.9033 89.8164 47.8768 89.8053C47.8329 89.7867 47.7893 89.7675 47.7459 89.7479C47.7225 89.7373 47.6986 89.727 47.6754 89.716C47.6321 89.6955 47.5891 89.6744 47.5465 89.6525L47.5143 89.6367L47.5055 89.6322L47.4789 89.6191C47.4145 89.5857 47.3508 89.551 47.2879 89.515C47.2736 89.5068 47.2594 89.4982 47.2451 89.4896L47.2309 89.4812L47.1984 89.4617C47.1656 89.4425 47.1331 89.4229 47.1008 89.4029C47.0832 89.392 47.0658 89.3807 47.0484 89.3693L47.0311 89.3582C45.9371 88.651 45.1303 87.5807 44.7568 86.342C44.4229 85.2348 44.5537 84.4461 44.5244 83.5352L43.3623 83.8244C39.717 84.8193 38.458 84.8242 36.8307 85.799L36.7826 85.8109C35.4201 86.6432 34.4033 87.9482 34.0582 89.6166C33.8539 90.6039 33.8945 90.7969 32.8457 100Z" fill="#F9B938"/>
<path d="M36.609 94.0863C37.0285 90.3027 36.7338 87.1281 39.917 85.0846L39.965 85.0721C40.318 84.8498 40.6979 84.6592 41.0953 84.4934C41.1682 84.4359 41.2389 84.3834 41.3068 84.3359C39.6965 84.7959 38.3596 84.8836 36.8324 85.7984L36.7844 85.8103C35.3937 86.6596 34.3936 87.9695 34.0523 89.6572C33.8508 90.6496 33.8967 90.7871 32.8467 100H35.9795L36.609 94.0863ZM41.6488 100L41.7891 95.633C41.7954 95.4349 41.7627 95.2375 41.6928 95.0521C41.6229 94.8666 41.5171 94.6967 41.3816 94.5522C41.246 94.4076 41.0833 94.2911 40.9027 94.2095C40.7221 94.1278 40.5272 94.0825 40.3291 94.0762C39.4959 94.0436 38.799 94.7027 38.7723 95.5359L38.6289 100H41.6488ZM61.3711 100L61.2277 95.5359C61.201 94.7031 60.5105 94.0461 59.6709 94.0762C59.2708 94.089 58.8923 94.2603 58.6185 94.5522C58.3447 94.8442 58.1981 95.233 58.2109 95.633L58.3512 100H61.3711Z" fill="#EAA224"/>
<path d="M48.7492 86.4504C48.7744 86.4131 49.9293 86.0713 49.9828 84.6086V79.4195C48.5115 79.4119 47.149 79.1059 45.948 78.5742C45.8457 81.6537 46.2168 82.9828 45.5746 83.2738L44.5261 83.5348C44.5554 84.4441 44.4246 85.2322 44.7586 86.3416C44.9009 86.8135 45.1256 87.2934 45.3472 87.643L48.7492 86.4504Z" fill="#E2BF91"/>
<path d="M49.3028 59.9301C47.0315 63.7082 42.21 63.1269 40.4981 62.781C40.423 62.766 40.3455 62.7679 40.2711 62.7865C40.1968 62.8051 40.1276 62.8399 40.0684 62.8886C40.0092 62.9372 39.9615 62.9984 39.9288 63.0677C39.8961 63.1369 39.8792 63.2126 39.8794 63.2892C39.8794 69.4369 39.6917 70.7886 40.3092 72.8306C41.5622 76.9853 45.3979 79.9724 49.8792 80.0222C55.4645 80.092 60.1212 75.5955 60.1212 69.9031V63.2894C60.1212 62.9627 59.8225 62.7166 59.5024 62.7812C57.7905 63.1271 52.969 63.7082 50.6977 59.9302C50.3809 59.4035 49.6194 59.4035 49.3028 59.9301Z" fill="#FCE3BB"/>
<path d="M45.059 71.6448C44.795 70.1214 44.9645 69.5331 44.9098 62.8618C43.1288 63.2048 41.3907 62.9618 40.4981 62.7815C40.423 62.7665 40.3455 62.7684 40.2711 62.787C40.1968 62.8056 40.1276 62.8404 40.0684 62.8891C40.0092 62.9377 39.9615 62.9988 39.9288 63.0681C39.8961 63.1374 39.8792 63.2131 39.8794 63.2897C39.8794 69.5307 39.6954 70.801 40.3092 72.8311C41.8333 77.885 47.1331 81.0919 52.5155 79.7073C48.6922 78.7245 45.7442 75.5866 45.059 71.6448Z" fill="#EFD0A3"/>
</g>
<defs>
<clipPath id="clip0_2419_65264">
<rect width="100" height="100" fill="white"/>
</clipPath>
</defs>
</svg>
