<svg width="100" height="100" viewBox="0 0 100 100" fill="none" xmlns="http://www.w3.org/2000/svg">
<g clip-path="url(#clip0_2419_65354)">
<path d="M92.6869 10.8259C96.3254 11.8008 98.4848 15.5408 97.5096 19.1793L77.2089 94.9431C76.234 98.5817 72.494 100.741 68.8554 99.7659L29.3265 89.174C25.6879 88.1991 23.5286 84.4591 24.5037 80.8205L44.8044 5.05694C45.7794 1.41839 49.5194 -0.740958 53.1579 0.234168L92.6869 10.8259Z" fill="#F5F9EC"/>
<path d="M62.094 20.877H40.5649L24.5036 80.8207C23.5287 84.459 25.6882 88.199 29.3268 89.174L68.8555 99.7652C72.4939 100.74 76.2339 98.5814 77.2088 94.9429L89.667 48.4495L62.094 20.877Z" fill="#E4E8DB"/>
<path d="M92.687 10.8256C96.3255 11.8006 98.4849 15.5406 97.5097 19.1791L88.6833 52.1198L35.9785 37.9977L44.805 5.05694C45.7799 1.41839 49.5199 -0.740958 53.1584 0.234168L92.687 10.8256Z" fill="#DCC69F"/>
<path d="M53.7412 63.9375L47.5633 86.9955L44.2692 86.1129L50.4471 63.0549L53.7412 63.9375Z" fill="#C8BEB2"/>
<path d="M57.2734 50.7656L55.5083 57.3536L52.2142 56.471L53.9793 49.883L57.2734 50.7656Z" fill="#C8BEB2"/>
<path d="M67.1621 53.4043L65.397 59.9923L62.1029 59.1097L63.868 52.5217L67.1621 53.4043Z" fill="#C8BEB2"/>
<path d="M77.0361 56.0566L75.271 62.6446L71.9769 61.762L73.742 55.1741L77.0361 56.0566Z" fill="#C8BEB2"/>
<path d="M63.6172 66.5879L57.4392 89.6459L54.1452 88.7633L60.3231 65.7053L63.6172 66.5879Z" fill="#C8BEB2"/>
<path d="M73.5117 69.2402L67.3338 92.2982L64.0397 91.4157L70.2176 68.3576L73.5117 69.2402Z" fill="#C8BEB2"/>
<path d="M81.0382 14.7664L78.2147 14.0098L68.1298 23.4123L62.0126 21.7733C60.1304 21.269 57.9958 21.7057 57.7436 22.6467C57.4915 23.588 59.1216 25.0335 61.0038 25.5378L67.121 27.1768L71.1535 40.3623L73.977 41.1189L73.709 28.9423L78.6979 30.2789L80.89 34.1447L82.7723 34.649L82.4487 29.2663L85.4204 24.7666L83.5381 24.2623L79.7069 26.5142L74.7181 25.1776L81.0382 14.7664Z" fill="#F5F9EC"/>
<path d="M35.9785 37.9976L88.6839 52.1198L89.6669 48.4499L62.0942 20.877H40.566L35.9785 37.9976Z" fill="#CDB994"/>
<path d="M62.0132 21.7726C60.1307 21.2681 57.9959 21.7051 57.7446 22.6461C57.4925 23.5873 59.1217 25.0331 61.005 25.5374C61.5136 25.674 64.4786 26.4686 67.1212 27.1764L71.1542 40.3621L73.9775 41.1185L73.7902 32.5728L63.3471 22.1301L62.0132 21.7726Z" fill="#E4E8DB"/>
<path d="M56.452 1.11679L32.6206 90.0568L29.3265 89.1742C25.6879 88.1993 23.5286 84.4593 24.5037 80.8207L44.8047 5.05694C45.7796 1.41839 49.5196 -0.740958 53.1581 0.234168L56.452 1.11679Z" fill="#EA672C"/>
<path d="M63.6409 86.5688C63.6409 90.3357 60.5872 93.3894 56.8203 93.3894H5.66614C3.7826 93.3894 2.25586 91.8627 2.25586 89.9791V21.7736C2.25586 19.89 3.7826 18.3633 5.66614 18.3633H56.8203C60.5872 18.3633 63.6409 21.417 63.6409 25.1838V86.5688Z" fill="#125D9D"/>
<path d="M32.948 28.5938C21.6474 28.5938 12.4863 37.7548 12.4863 49.0554C12.4863 60.356 21.6474 69.5171 32.948 69.5171C44.2486 69.5171 53.4097 60.356 53.4097 49.0554C53.4097 37.7548 44.2488 28.5938 32.948 28.5938ZM48.0911 41.3823H40.7168C40.0115 37.8484 38.91 34.9921 37.7853 32.7884C42.2913 34.1331 45.9906 37.2578 48.0911 41.3823ZM38.0634 49.0554C38.0634 50.5777 37.9494 51.9761 37.7927 53.3183H28.1039C27.9466 51.9761 27.8324 50.5775 27.8324 49.0554C27.8324 47.5325 27.9447 46.1343 28.1005 44.7926H37.7959C37.9511 46.1343 38.0634 47.5327 38.0634 49.0554ZM28.6694 41.3823C29.6162 37.109 31.1781 34.0046 32.4518 32.0539C32.62 32.049 32.7781 32.004 32.948 32.004C33.1196 32.004 33.2784 32.0499 33.4491 32.0548C34.7288 34.018 36.285 37.1237 37.2273 41.3823H28.6694ZM28.1107 32.7884C26.99 34.9874 25.8877 37.8469 25.1817 41.3823H17.8049C18.8508 39.3263 20.3036 37.5043 22.0753 36.027C23.8469 34.5497 25.9003 33.4478 28.1107 32.7884ZM16.5019 44.7926H24.6638C24.5214 46.143 24.4223 47.5476 24.4223 49.0554C24.4223 50.564 24.524 51.9669 24.6687 53.3183H16.5017C16.1453 51.9478 15.8964 50.5359 15.8964 49.0554C15.8966 47.5751 16.1456 46.1631 16.5019 44.7926ZM17.8049 56.7285H25.19C25.9028 60.2703 27.0058 63.1512 28.1058 65.3209C23.6023 63.9754 19.9047 60.8516 17.8049 56.7285ZM32.4518 66.0569C31.2296 64.177 29.6377 61.0643 28.6736 56.7285H37.2228C36.2602 61.0613 34.67 64.1727 33.4438 66.0569C33.2756 66.0618 33.1183 66.1068 32.9484 66.1068C32.7785 66.1068 32.6208 66.062 32.4518 66.0569ZM37.7921 65.3209C38.8936 63.149 39.996 60.2705 40.707 56.7285H48.0913C45.9915 60.8514 42.2947 63.9745 37.7921 65.3209ZM49.3943 53.3183H41.2281C41.3722 51.9669 41.4737 50.564 41.4737 49.0554C41.4737 47.5476 41.3754 46.143 41.2331 44.7926H49.3941C49.7504 46.1631 49.9994 47.5749 49.9994 49.0554C49.9994 50.5359 49.7504 51.948 49.3943 53.3183Z" fill="#E7BE29"/>
<path d="M14.7246 83.1606V78.2784H16.5664C16.8906 78.2784 17.138 78.2939 17.309 78.325C17.5487 78.3651 17.7495 78.4412 17.9117 78.5531C18.0737 78.6652 18.2042 78.8225 18.3031 79.0244C18.4017 79.2264 18.4512 79.4485 18.4512 79.6904C18.4512 80.1056 18.319 80.4571 18.055 80.7444C17.7907 81.0322 17.3134 81.1756 16.6229 81.1756H15.3706V83.1606H14.7246ZM15.3706 80.5995H16.6329C17.0502 80.5995 17.3467 80.5219 17.5221 80.3663C17.6975 80.2109 17.7851 79.9922 17.7851 79.7103C17.7851 79.5061 17.7335 79.3313 17.6302 79.1857C17.5326 79.0444 17.388 78.9422 17.2222 78.8975C17.1133 78.8688 16.9125 78.8543 16.6194 78.8543H15.3706V80.5995ZM18.2314 83.1606L20.1065 78.2784H20.8026L22.8008 83.1606H22.0648L21.4953 81.6818H19.4538L18.9175 83.1606H18.2314ZM19.6401 81.1556H21.2954L20.7857 79.8034C20.6304 79.3927 20.5148 79.0553 20.4394 78.791C20.3761 79.1082 20.2881 79.4199 20.1764 79.7235L19.6401 81.1556ZM23.0971 81.5919L23.7064 81.5386C23.7352 81.7829 23.8023 81.9832 23.9078 82.1397C24.0134 82.2961 24.177 82.4227 24.3991 82.5193C24.6212 82.6158 24.8708 82.6642 25.1485 82.6642C25.3949 82.6642 25.6126 82.6275 25.8014 82.5542C25.99 82.4809 26.1305 82.3807 26.2228 82.2528C26.3126 82.132 26.3611 81.9854 26.3609 81.8349C26.3609 81.6816 26.3166 81.548 26.2277 81.4335C26.1388 81.3193 25.9924 81.2234 25.788 81.1453C25.6569 81.0944 25.3672 81.0151 24.9188 80.9073C24.4703 80.7996 24.1562 80.6982 23.9763 80.6025C23.7431 80.4806 23.5694 80.329 23.4551 80.1478C23.3407 79.9669 23.2836 79.7644 23.2836 79.54C23.2836 79.2936 23.3535 79.0634 23.4933 78.8489C23.6331 78.6347 23.8373 78.4721 24.1061 78.3611C24.3746 78.25 24.6732 78.1946 25.0019 78.1946C25.3638 78.1946 25.6829 78.2528 25.9593 78.3694C26.2358 78.486 26.4483 78.6575 26.5971 78.8839C26.7458 79.1105 26.8258 79.3669 26.8369 79.6531L26.2175 79.6998C26.1842 79.3914 26.0715 79.1582 25.8794 79.0005C25.6874 78.843 25.4037 78.7641 25.0286 78.7641C24.6379 78.7641 24.3531 78.8357 24.1743 78.979C23.9954 79.1222 23.9061 79.2948 23.9061 79.4969C23.9061 79.6723 23.9694 79.8166 24.0961 79.9298C24.2203 80.043 24.5449 80.1591 25.0701 80.2779C25.5951 80.3968 25.9553 80.5006 26.1507 80.5893C26.4349 80.7203 26.6446 80.8864 26.7802 81.0872C26.9155 81.2882 26.9833 81.5196 26.9833 81.7816C26.9833 82.0414 26.9089 82.2861 26.7601 82.5159C26.6113 82.7456 26.3976 82.9244 26.119 83.0521C25.8402 83.1798 25.5267 83.2435 25.1782 83.2435C24.7363 83.2435 24.3661 83.1789 24.0675 83.0504C23.7689 82.9217 23.5346 82.7279 23.3648 82.4692C23.1953 82.2108 23.106 81.9182 23.0971 81.5919ZM27.6464 81.5919L28.2557 81.5386C28.2845 81.7829 28.3517 81.9832 28.4572 82.1397C28.5627 82.2961 28.7264 82.4227 28.9485 82.5193C29.1705 82.6158 29.4201 82.6642 29.6979 82.6642C29.9443 82.6642 30.1619 82.6275 30.3507 82.5542C30.5393 82.4809 30.6798 82.3807 30.7721 82.2528C30.8619 82.132 30.9104 81.9854 30.9102 81.8349C30.9102 81.6816 30.8659 81.548 30.777 81.4335C30.6881 81.3193 30.5417 81.2234 30.3373 81.1453C30.2062 81.0944 29.9165 81.0151 29.4681 80.9073C29.0196 80.7996 28.7055 80.6982 28.5256 80.6025C28.2924 80.4806 28.1187 80.329 28.0044 80.1478C27.89 79.9669 27.8329 79.7644 27.8329 79.54C27.8329 79.2936 27.9028 79.0634 28.0426 78.8489C28.1824 78.6347 28.3866 78.4721 28.6554 78.3611C28.9239 78.25 29.2226 78.1946 29.5512 78.1946C29.9131 78.1946 30.2322 78.2528 30.5087 78.3694C30.7851 78.486 30.9976 78.6575 31.1464 78.8839C31.2952 79.1105 31.3751 79.3669 31.3862 79.6531L30.7668 79.6998C30.7335 79.3914 30.6208 79.1582 30.4287 79.0005C30.2367 78.843 29.953 78.7641 29.5779 78.7641C29.1872 78.7641 28.9024 78.8357 28.7236 78.979C28.5448 79.1222 28.4555 79.2948 28.4555 79.4969C28.4555 79.6723 28.5188 79.8166 28.6454 79.9298C28.7696 80.043 29.0942 80.1591 29.6194 80.2779C30.1444 80.3968 30.5046 80.5006 30.7001 80.5893C30.9842 80.7203 31.1939 80.8864 31.3295 81.0872C31.4648 81.2882 31.5326 81.5196 31.5326 81.7816C31.5326 82.0414 31.4582 82.2861 31.3094 82.5159C31.1607 82.7456 30.9469 82.9244 30.6683 83.0521C30.3895 83.1798 30.076 83.2435 29.7275 83.2435C29.2856 83.2435 28.9154 83.1789 28.6168 83.0504C28.3182 82.9217 28.0839 82.7279 27.9141 82.4692C27.7446 82.2108 27.6551 81.9182 27.6464 81.5919ZM32.4154 83.1606V78.2784H34.2572C34.5814 78.2784 34.8288 78.2939 34.9998 78.325C35.2396 78.3651 35.4403 78.4412 35.6025 78.5531C35.7645 78.6652 35.895 78.8225 35.9939 79.0244C36.0926 79.2264 36.142 79.4485 36.142 79.6904C36.142 80.1056 36.0099 80.4571 35.7458 80.7444C35.4815 81.0322 35.0043 81.1756 34.3137 81.1756H33.0615V83.1606H32.4154ZM33.0615 80.5995H34.3237C34.741 80.5995 35.0375 80.5219 35.2129 80.3663C35.3883 80.2109 35.4759 79.9922 35.4759 79.7103C35.4759 79.5061 35.4244 79.3313 35.321 79.1857C35.2234 79.0444 35.0789 78.9422 34.913 78.8975C34.8041 78.8688 34.6033 78.8543 34.3103 78.8543H33.0615V80.5995ZM36.7682 80.7826C36.7682 79.9722 36.9858 79.3379 37.4211 78.8792C37.8563 78.421 38.4179 78.1914 39.1062 78.1914C39.5568 78.1914 39.9632 78.2993 40.3251 78.5145C40.6871 78.73 40.9629 79.0303 41.1528 79.4155C41.3427 79.8008 41.4375 80.2376 41.4375 80.7259C41.4375 81.221 41.3376 81.6639 41.1379 82.0546C40.9379 82.4455 40.6549 82.7414 40.2887 82.9421C39.9257 83.1422 39.5175 83.246 39.103 83.2435C38.6434 83.2435 38.2327 83.1325 37.8708 82.9104C37.5139 82.694 37.228 82.3779 37.0483 82.0011C36.8625 81.6219 36.7667 81.2049 36.7682 80.7826ZM37.4343 80.7926C37.4343 81.3811 37.5924 81.8447 37.909 82.1829C38.2253 82.5216 38.6221 82.6908 39.0996 82.6908C39.5857 82.6908 39.986 82.5199 40.3002 82.178C40.6144 81.8361 40.7715 81.351 40.7715 80.7227C40.7715 80.3254 40.7043 79.9784 40.57 79.6819C40.4358 79.3854 40.2392 79.1557 39.9805 78.9926C39.7217 78.8293 39.4314 78.7479 39.1096 78.7479C38.6522 78.7479 38.2587 78.905 37.929 79.2192C37.599 79.5333 37.4343 80.0579 37.4343 80.7926ZM42.2799 83.1606V78.2784H44.4445C44.8798 78.2784 45.2106 78.3223 45.4369 78.4099C45.6635 78.4977 45.8442 78.6526 45.9798 78.8745C46.115 79.096 46.1854 79.351 46.1829 79.6105C46.1829 79.9569 46.0708 80.2489 45.8466 80.4863C45.6224 80.724 45.276 80.8749 44.8075 80.9392C44.9785 81.0215 45.1083 81.1025 45.1971 81.1824C45.3858 81.3557 45.5646 81.5721 45.7334 81.8319L46.5826 83.1606H45.7699L45.1238 82.1448C44.935 81.8517 44.7796 81.6275 44.6575 81.4721C44.5353 81.3167 44.426 81.208 44.3294 81.1458C44.2391 81.0865 44.1394 81.0426 44.0347 81.016C43.9613 81.0006 43.8416 80.9927 43.6749 80.9927H42.9255V83.1608H42.2799V83.1606ZM42.9259 80.433H44.3147C44.6099 80.433 44.841 80.4025 45.0075 80.3414C45.1739 80.2804 45.3005 80.1828 45.3871 80.0483C45.4736 79.914 45.5169 79.7682 45.5169 79.6103C45.5169 79.3795 45.4329 79.1895 45.2654 79.0408C45.0976 78.8922 44.8329 78.8176 44.471 78.8176H42.9257L42.9259 80.433ZM48.3146 83.1606V78.8545H46.706V78.2784H50.5758V78.8545H48.9606V83.1606H48.3146Z" fill="white"/>
</g>
<defs>
<clipPath id="clip0_2419_65354">
<rect width="100" height="100" fill="white"/>
</clipPath>
</defs>
</svg>
